<svg xmlns="http://www.w3.org/2000/svg" width="1387" height="756" viewBox="0 0 1387 756">
<g>
<path d="M 749.89 553.71 L 734.91 574.91 L 654.14 574.98 C609.72,575.01 573.07,574.73 572.69,574.35 C572.31,573.98 572.00,485.54 572.00,377.83 L 572.00 182.00 L 732.67 182.00 L 752.59 211.49 C780.91,253.43 781.44,254.28 779.19,253.56 C767.33,249.80 764.65,249.65 700.75,249.27 L 638.00 248.89 L 638.00 269.98 C638.00,289.18 637.84,291.11 636.25,291.63 C635.29,291.93 633.31,292.63 631.86,293.17 C630.40,293.71 623.84,299.46 617.27,305.94 C606.10,316.95 605.00,317.77 600.41,318.46 C593.03,319.56 589.83,321.25 585.22,326.49 C579.39,333.11 577.57,340.61 580.06,347.76 C580.98,350.38 580.73,351.57 578.33,356.16 C575.93,360.75 575.56,362.55 575.70,369.00 C575.83,375.20 576.78,379.17 581.18,391.94 C585.83,405.42 586.94,407.72 590.00,410.15 C592.05,411.79 600.54,415.44 610.50,418.98 C619.85,422.31 628.62,425.86 630.00,426.87 C631.95,428.31 632.66,429.98 633.23,434.45 C633.62,437.60 634.86,441.66 635.98,443.46 C637.89,446.56 638.00,448.36 638.00,477.37 L 638.00 508.00 L 697.25 507.99 C756.70,507.98 769.88,507.40 779.77,504.34 C782.67,503.45 785.23,502.90 785.46,503.12 C785.68,503.35 781.14,510.05 775.36,518.02 C769.59,525.98 758.12,542.04 749.89,553.71 Z" fill="rgb(10,34,85)"/>
<path d="M 848.12 462.13 C830.86,470.28 815.96,477.20 815.00,477.50 C813.37,478.02 813.34,477.67 814.61,472.28 C817.36,460.59 815.39,443.40 810.30,434.79 L 808.35 431.49 L 810.66 426.49 C813.36,420.66 813.57,416.75 811.51,410.67 L 810.01 406.27 L 815.61 394.41 C823.16,378.39 823.05,375.96 813.79,356.48 C810.14,348.79 805.34,338.28 803.14,333.13 L 799.12 323.76 L 802.02 318.62 C808.18,307.70 809.67,291.32 805.56,279.66 C804.62,276.99 804.08,274.58 804.36,274.31 C804.90,273.77 809.79,275.93 854.23,296.32 C874.56,305.64 881.51,308.24 882.61,312.39 C883.17,314.46 882.27,316.91 880.86,320.78 C880.48,321.82 880.07,322.96 879.63,324.22 C873.92,340.77 862.69,354.84 846.11,366.18 L 837.90 371.80 L 843.70 375.08 C867.71,388.68 883.68,408.61 890.05,432.92 C891.12,437.02 892.00,440.68 892.00,441.05 C892.00,441.42 889.19,442.98 885.75,444.52 C882.31,446.05 865.38,453.98 848.12,462.13 ZM 660.39 297.42 C659.95,298.56 658.49,298.98 655.14,298.94 C650.24,298.87 651.21,297.98 657.75,296.55 C660.46,295.96 660.90,296.10 660.39,297.42 ZM 803.80 376.69 C804.84,378.58 804.65,379.26 802.42,381.69 C801.00,383.24 800.19,383.84 800.61,383.03 C801.04,382.23 801.66,379.98 801.99,378.03 C802.56,374.65 802.64,374.59 803.80,376.69 ZM 892.72 451.39 C892.96,451.63 893.01,452.66 892.83,453.69 C892.52,455.43 892.40,455.44 890.83,453.85 C889.33,452.33 889.32,452.09 890.72,451.55 C891.58,451.22 892.48,451.15 892.72,451.39 ZM 749.28 571.96 C749.69,573.52 749.33,574.00 747.78,574.00 C746.01,574.00 745.92,573.78 747.09,572.25 C747.83,571.29 748.50,570.37 748.59,570.21 C748.68,570.05 748.99,570.84 749.28,571.96 Z" fill="rgb(60,165,163)"/>
<path d="M 743.98 490.72 C742.62,491.41 739.17,491.98 736.33,491.99 C727.35,492.01 721.23,484.87 722.44,475.78 C723.07,470.96 722.99,470.76 717.94,464.94 C715.12,461.67 713.00,459.00 713.24,459.00 C713.48,459.00 711.70,456.86 709.28,454.25 C706.85,451.64 702.80,446.97 700.27,443.87 L 695.67 438.24 L 682.62 437.52 C672.10,436.93 669.48,437.06 669.12,438.14 C668.03,441.41 663.18,444.85 658.71,445.52 C649.26,446.94 642.04,440.30 641.95,430.10 C641.91,425.01 641.56,424.16 638.17,420.71 C635.48,417.98 631.94,415.99 625.47,413.59 C603.78,405.53 597.69,403.03 596.00,401.50 C594.11,399.79 588.77,384.13 588.76,380.25 C588.75,379.01 588.40,378.00 587.97,378.00 C586.51,378.00 584.69,368.08 585.89,366.64 C586.49,365.91 586.69,365.02 586.32,364.66 C585.96,364.30 586.22,364.00 586.89,364.00 C587.57,364.00 587.84,363.55 587.50,363.00 C587.16,362.45 587.39,362.00 588.00,362.00 C588.61,362.00 588.85,361.57 588.52,361.03 C588.19,360.50 588.89,358.17 590.07,355.86 C592.03,352.02 592.09,351.41 590.74,349.07 C589.93,347.66 589.47,345.94 589.72,345.25 C589.96,344.56 589.68,344.00 589.08,344.00 C587.71,344.00 587.65,339.33 589.02,338.49 C589.58,338.14 589.77,337.44 589.46,336.93 C589.14,336.42 589.39,336.00 590.00,336.00 C590.61,336.00 590.83,335.54 590.48,334.97 C589.52,333.42 595.49,328.35 599.15,327.62 C600.92,327.27 603.89,327.26 605.76,327.61 C609.03,328.23 609.60,327.81 621.83,315.76 C628.80,308.89 635.40,302.82 636.50,302.27 C637.60,301.72 642.78,300.23 648.00,298.97 C653.22,297.70 657.95,296.37 658.50,296.00 C659.05,295.63 664.34,294.02 670.25,292.42 C676.16,290.81 680.99,288.97 681.00,288.33 C681.00,285.94 686.26,281.00 689.98,279.89 C693.23,278.91 694.38,279.02 697.65,280.62 C699.77,281.65 702.40,283.92 703.50,285.66 C705.40,288.67 706.13,288.95 718.50,291.33 L 731.50 293.83 L 734.00 291.48 C739.38,286.41 746.55,285.65 752.26,289.53 C756.81,292.62 759.00,296.63 759.00,301.87 C759.00,306.49 759.90,307.39 778.34,321.00 C787.04,327.42 790.22,330.39 791.38,333.15 C792.22,335.16 796.74,345.08 801.42,355.19 C806.10,365.29 810.03,374.90 810.14,376.53 C810.40,380.38 809.71,382.41 803.86,394.86 C801.19,400.56 799.00,405.61 799.00,406.09 C799.00,406.56 799.90,408.43 801.00,410.23 C807.12,420.27 798.69,432.99 786.87,431.53 L 782.24 430.96 L 764.15 449.19 L 748.82 448.99 C740.40,448.87 733.21,448.83 732.85,448.89 C732.49,448.95 732.79,450.91 733.52,453.25 C736.54,462.98 737.12,464.00 739.52,464.00 C742.33,464.00 747.53,468.19 749.54,472.07 C750.34,473.63 750.99,476.39 750.98,478.20 C750.96,482.38 747.21,489.08 743.98,490.72 ZM 749.28 571.96 C748.99,570.84 748.68,570.05 748.59,570.21 C748.50,570.37 747.83,571.29 747.09,572.25 C746.66,572.82 746.39,573.21 746.33,573.47 C746.11,573.41 746.00,573.34 746.00,573.26 C746.00,572.68 747.39,570.48 749.10,568.36 C750.80,566.24 755.87,559.27 760.35,552.87 C764.83,546.48 776.34,530.32 785.91,516.97 L 803.33 492.69 L 828.91 480.32 C842.99,473.51 856.75,466.85 859.50,465.51 C881.19,455.01 892.34,450.09 893.23,450.64 C894.80,451.61 893.47,482.08 891.52,490.00 C880.29,535.44 847.97,561.82 791.52,571.63 C782.97,573.11 757.76,574.23 749.02,573.78 C749.49,573.51 749.54,572.95 749.28,571.96 ZM 885.00 290.13 C885.00,301.45 884.60,303.15 882.45,301.09 C881.93,300.59 875.88,297.60 869.00,294.45 C862.12,291.29 847.50,284.58 836.50,279.53 C825.50,274.48 811.64,268.14 805.70,265.43 L 794.91 260.50 L 779.53 237.50 C771.07,224.85 759.43,207.53 753.66,199.01 C747.89,190.50 743.36,183.22 743.59,182.85 C743.82,182.48 743.45,181.91 742.76,181.59 C742.07,181.26 747.35,181.24 754.50,181.53 C795.31,183.17 825.31,191.98 847.61,208.85 C871.95,227.27 885.00,255.63 885.00,290.13 ZM 785.26 400.75 C789.00,404.78 790.18,403.73 796.32,390.87 C796.65,390.17 796.96,389.51 797.26,388.89 C800.04,383.11 801.30,380.47 801.24,377.86 C801.19,375.38 799.94,372.93 797.66,367.86 C796.26,364.75 795.39,361.94 795.73,361.61 C796.06,361.27 795.78,361.00 795.11,361.00 C794.43,361.00 794.16,360.55 794.50,360.00 C794.84,359.45 794.59,359.00 793.95,359.00 C793.31,359.00 793.05,358.33 793.36,357.50 C793.68,356.67 793.58,356.00 793.15,356.00 C792.72,356.00 790.40,351.61 788.01,346.25 C785.62,340.89 782.72,335.69 781.58,334.69 C775.58,329.49 754.51,314.00 753.43,314.00 C749.48,314.00 749.00,315.05 749.00,323.79 L 749.00 332.37 L 719.05 362.71 L 720.68 366.86 L 722.30 371.00 L 753.26 371.00 L 757.10 367.53 C761.89,363.20 765.04,362.36 769.78,364.17 C776.54,366.74 779.88,374.97 776.58,380.93 C775.36,383.14 775.60,384.05 779.21,390.93 C781.39,395.09 784.11,399.51 785.26,400.75 ZM 742.22 440.01 C748.97,440.38 755.62,440.75 757.00,440.83 C758.88,440.95 761.50,439.01 767.64,432.95 L 775.77 424.92 L 774.88 420.98 C774.22,418.03 774.41,415.95 775.62,412.77 C778.01,406.45 777.85,403.19 775.00,399.98 C774.17,399.05 772.30,396.04 770.83,393.29 C768.47,388.87 767.69,388.21 764.19,387.65 C761.37,387.20 759.32,385.99 757.14,383.51 L 754.06 380.00 L 722.24 380.00 L 720.93 383.25 C720.20,385.04 718.34,388.11 716.78,390.07 L 713.95 393.65 L 721.10 415.57 C725.03,427.63 728.63,437.91 729.10,438.42 C729.56,438.93 735.47,439.65 742.22,440.01 ZM 648.02 369.03 C649.04,370.94 649.92,371.04 664.10,370.78 L 679.10 370.50 L 681.04 366.16 L 682.98 361.83 L 678.13 356.75 C673.44,351.83 673.10,351.66 667.56,351.58 C662.43,351.51 661.54,351.17 658.97,348.29 C655.29,344.17 654.38,339.42 656.36,334.67 C657.88,331.05 661.25,328.81 667.00,327.60 C669.04,327.17 670.78,324.56 676.43,313.51 C680.59,305.36 682.98,299.60 682.43,299.08 C681.89,298.58 677.69,299.35 672.50,300.91 C667.55,302.40 658.33,304.92 652.00,306.51 L 640.50 309.41 L 628.50 321.20 L 616.50 332.99 L 616.65 349.10 L 624.03 356.53 C631.06,363.61 631.58,363.93 635.04,363.38 C639.27,362.70 646.26,365.75 648.02,369.03 ZM 643.37 413.89 C647.90,418.43 648.49,418.72 651.15,417.80 C652.74,417.24 655.83,416.96 658.04,417.17 L 662.04 417.56 L 669.77 407.67 C674.02,402.22 678.80,396.05 680.39,393.93 L 683.29 390.09 L 681.32 385.30 L 679.35 380.50 L 664.31 380.22 C649.52,379.95 649.24,379.99 647.74,382.27 C646.90,383.55 644.33,385.45 642.02,386.49 C638.20,388.21 637.46,388.25 633.70,386.94 C628.13,385.00 624.71,379.97 625.23,374.50 C625.59,370.66 625.30,370.20 617.74,362.75 C609.69,354.82 609.18,354.58 602.81,355.63 C599.40,356.20 598.92,356.72 596.42,362.59 L 593.73 368.94 L 597.91 382.18 C600.21,389.46 602.20,395.54 602.35,395.68 C602.60,395.93 606.70,397.45 628.48,405.36 C636.79,408.38 639.28,409.81 643.37,413.89 ZM 709.00 355.42 C710.38,356.18 711.72,356.85 711.99,356.90 C712.25,356.96 718.67,350.82 726.24,343.26 L 740.00 329.53 L 739.99 322.51 C739.98,315.65 739.90,315.45 736.59,313.31 C734.43,311.91 732.61,309.54 731.53,306.72 L 729.85 302.32 L 718.18 300.16 C704.47,297.62 703.36,297.56 702.30,299.36 C701.25,301.16 695.62,304.00 693.11,304.00 C691.57,304.00 689.56,307.04 684.11,317.64 C677.36,330.76 677.15,331.39 678.55,334.09 C679.35,335.64 680.00,338.95 680.00,341.45 C680.00,345.28 680.58,346.63 683.66,350.05 C688.79,355.73 689.84,356.11 695.29,354.31 C700.25,352.68 704.72,353.04 709.00,355.42 ZM 712.24 444.59 C718.98,452.51 724.87,458.99 725.32,459.00 C725.77,459.00 725.82,457.99 725.44,456.75 C723.22,449.55 709.51,407.57 707.80,402.75 L 705.76 397.00 L 700.31 397.00 C697.32,397.00 693.91,396.49 692.73,395.86 C690.85,394.85 690.28,395.12 688.05,398.07 C686.65,399.92 684.04,403.00 682.25,404.92 C680.46,406.85 679.00,408.77 679.00,409.20 C679.00,409.64 676.73,412.80 673.96,416.24 C670.39,420.68 669.00,423.23 669.21,425.00 C669.55,427.95 672.21,428.55 689.24,429.56 L 699.98 430.19 ZM 660.39 297.42 C660.90,296.10 660.46,295.96 657.75,296.55 C651.21,297.98 650.24,298.87 655.14,298.94 C658.49,298.98 659.95,298.56 660.39,297.42 ZM 803.80 376.69 C802.64,374.59 802.56,374.65 801.99,378.03 C801.66,379.98 801.04,382.23 800.61,383.03 C800.19,383.84 801.00,383.24 802.42,381.69 C804.65,379.26 804.84,378.58 803.80,376.69 ZM 892.72 451.39 C892.48,451.15 891.58,451.22 890.72,451.55 C889.32,452.09 889.33,452.33 890.83,453.85 C892.40,455.44 892.52,455.43 892.83,453.69 C893.01,452.66 892.96,451.63 892.72,451.39 Z" fill="rgb(58,201,190)"/>
<path d="M 0.00 378.00 L 0.00 0.00 L 693.50 0.00 L 1387.00 0.00 L 1387.00 378.00 L 1387.00 756.00 L 693.50 756.00 L 0.00 756.00 L 0.00 378.00 ZM 749.89 553.71 C758.12,542.04 769.59,525.98 775.36,518.02 C781.14,510.05 785.68,503.35 785.46,503.12 C785.23,502.90 782.67,503.45 779.77,504.34 C769.88,507.40 756.70,507.98 697.25,507.99 L 638.00 508.00 L 638.00 477.37 C638.00,448.36 637.89,446.56 635.98,443.46 C634.86,441.66 633.62,437.60 633.23,434.45 C632.66,429.98 631.95,428.31 630.00,426.87 C628.62,425.86 619.85,422.31 610.50,418.98 C600.54,415.44 592.05,411.79 590.00,410.15 C586.94,407.72 585.83,405.42 581.18,391.94 C576.78,379.17 575.83,375.20 575.70,369.00 C575.56,362.55 575.93,360.75 578.33,356.16 C580.73,351.57 580.98,350.38 580.06,347.76 C577.57,340.61 579.39,333.11 585.22,326.49 C589.83,321.25 593.03,319.56 600.41,318.46 C605.00,317.77 606.10,316.95 617.27,305.94 C623.84,299.46 630.40,293.71 631.86,293.17 C633.31,292.63 635.29,291.93 636.25,291.63 C637.84,291.11 638.00,289.18 638.00,269.98 L 638.00 248.89 L 700.75 249.27 C764.65,249.65 767.33,249.80 779.19,253.56 C781.44,254.28 780.91,253.43 752.59,211.49 L 732.67 182.00 L 652.34 182.00 L 572.00 182.00 L 572.00 377.83 C572.00,485.54 572.31,573.98 572.69,574.35 C573.07,574.73 609.72,575.01 654.14,574.98 L 734.91 574.91 L 749.89 553.71 ZM 791.52 571.63 C847.97,561.82 880.29,535.44 891.52,490.00 C893.47,482.08 894.80,451.61 893.23,450.64 C892.34,450.09 881.19,455.01 859.50,465.51 C856.75,466.85 842.99,473.51 828.91,480.32 L 803.33 492.69 L 785.91 516.97 C776.34,530.32 764.83,546.48 760.35,552.87 C755.87,559.27 750.80,566.24 749.10,568.36 C747.39,570.48 746.00,572.68 746.00,573.26 C746.00,574.69 781.11,573.44 791.52,571.63 ZM 743.98 490.72 C747.21,489.08 750.96,482.38 750.98,478.20 C750.99,476.39 750.34,473.63 749.54,472.07 C747.53,468.19 742.33,464.00 739.52,464.00 C737.12,464.00 736.54,462.98 733.52,453.25 C732.79,450.91 732.49,448.95 732.85,448.89 C733.21,448.83 740.40,448.87 748.82,448.99 L 764.15 449.19 L 773.19 440.08 L 782.24 430.96 L 786.87 431.53 C798.69,432.99 807.12,420.27 801.00,410.23 C799.90,408.43 799.00,406.56 799.00,406.09 C799.00,405.61 801.19,400.56 803.86,394.86 C809.71,382.41 810.40,380.38 810.14,376.53 C810.03,374.90 806.10,365.29 801.42,355.19 C796.74,345.08 792.22,335.16 791.38,333.15 C790.22,330.39 787.04,327.42 778.34,321.00 C759.90,307.39 759.00,306.49 759.00,301.87 C759.00,296.63 756.81,292.62 752.26,289.53 C746.55,285.65 739.38,286.41 734.00,291.48 L 731.50 293.83 L 718.50 291.33 C706.13,288.95 705.40,288.67 703.50,285.66 C702.40,283.92 699.77,281.65 697.65,280.62 C694.38,279.02 693.23,278.91 689.98,279.89 C686.26,281.00 681.00,285.94 681.00,288.33 C680.99,288.97 676.16,290.81 670.25,292.42 C664.34,294.02 659.05,295.63 658.50,296.00 C657.95,296.37 653.22,297.70 648.00,298.97 C642.78,300.23 637.60,301.72 636.50,302.27 C635.40,302.82 628.80,308.89 621.83,315.76 C609.60,327.81 609.03,328.23 605.76,327.61 C603.89,327.26 600.92,327.27 599.15,327.62 C595.49,328.35 589.52,333.42 590.48,334.97 C590.83,335.54 590.61,336.00 590.00,336.00 C589.39,336.00 589.14,336.42 589.46,336.93 C589.77,337.44 589.58,338.14 589.02,338.49 C587.65,339.33 587.71,344.00 589.08,344.00 C589.68,344.00 589.96,344.56 589.72,345.25 C589.47,345.94 589.93,347.66 590.74,349.07 C592.09,351.41 592.03,352.02 590.07,355.86 C588.89,358.17 588.19,360.50 588.52,361.03 C588.85,361.57 588.61,362.00 588.00,362.00 C587.39,362.00 587.16,362.45 587.50,363.00 C587.84,363.55 587.57,364.00 586.89,364.00 C586.22,364.00 585.96,364.30 586.32,364.66 C586.69,365.02 586.49,365.91 585.89,366.64 C584.69,368.08 586.51,378.00 587.97,378.00 C588.40,378.00 588.75,379.01 588.76,380.25 C588.77,384.13 594.11,399.79 596.00,401.50 C597.69,403.03 603.78,405.53 625.47,413.59 C631.94,415.99 635.48,417.98 638.17,420.71 C641.56,424.16 641.91,425.01 641.95,430.10 C642.04,440.30 649.26,446.94 658.71,445.52 C663.18,444.85 668.03,441.41 669.12,438.14 C669.48,437.06 672.10,436.93 682.62,437.52 L 695.67 438.24 L 700.27 443.87 C702.80,446.97 706.85,451.64 709.28,454.25 C711.70,456.86 713.48,459.00 713.24,459.00 C713.00,459.00 715.12,461.67 717.94,464.94 C722.99,470.76 723.07,470.96 722.44,475.78 C721.23,484.87 727.35,492.01 736.33,491.99 C739.17,491.98 742.62,491.41 743.98,490.72 ZM 848.12 462.13 C865.38,453.98 882.31,446.05 885.75,444.52 C889.19,442.98 892.00,441.42 892.00,441.05 C892.00,440.68 891.12,437.02 890.05,432.92 C883.68,408.61 867.71,388.68 843.70,375.08 L 837.90 371.80 L 846.11 366.18 C862.69,354.84 873.92,340.77 879.63,324.22 C884.94,308.83 887.41,311.54 854.23,296.32 C809.79,275.93 804.90,273.77 804.36,274.31 C804.08,274.58 804.62,276.99 805.56,279.66 C809.67,291.32 808.18,307.70 802.02,318.62 L 799.12 323.76 L 803.14 333.13 C805.34,338.28 810.14,348.79 813.79,356.48 C823.05,375.96 823.16,378.39 815.61,394.41 L 810.01 406.27 L 811.51 410.67 C813.57,416.75 813.36,420.66 810.66,426.49 L 808.35 431.49 L 810.30 434.79 C815.39,443.40 817.36,460.59 814.61,472.28 C813.34,477.67 813.37,478.02 815.00,477.50 C815.96,477.20 830.86,470.28 848.12,462.13 ZM 885.00 290.13 C885.00,255.63 871.95,227.27 847.61,208.85 C825.31,191.98 795.31,183.17 754.50,181.53 C747.35,181.24 742.07,181.26 742.76,181.59 C743.45,181.91 743.82,182.48 743.59,182.85 C743.36,183.22 747.89,190.50 753.66,199.01 C759.43,207.53 771.07,224.85 779.53,237.50 L 794.91 260.50 L 805.70 265.43 C811.64,268.14 825.50,274.48 836.50,279.53 C847.50,284.58 862.12,291.29 869.00,294.45 C875.88,297.60 881.93,300.59 882.45,301.09 C884.60,303.15 885.00,301.45 885.00,290.13 ZM 712.24 444.59 L 699.98 430.19 L 689.24 429.56 C672.21,428.55 669.55,427.95 669.21,425.00 C669.00,423.23 670.39,420.68 673.96,416.24 C676.73,412.80 679.00,409.64 679.00,409.20 C679.00,408.77 680.46,406.85 682.25,404.92 C684.04,403.00 686.65,399.92 688.05,398.07 C690.28,395.12 690.85,394.85 692.73,395.86 C693.91,396.49 697.32,397.00 700.31,397.00 L 705.76 397.00 L 707.80 402.75 C709.51,407.57 723.22,449.55 725.44,456.75 C725.82,457.99 725.77,459.00 725.32,459.00 C724.87,458.99 718.98,452.51 712.24,444.59 ZM 742.22 440.01 C735.47,439.65 729.56,438.93 729.10,438.42 C728.63,437.91 725.03,427.63 721.10,415.57 L 713.95 393.65 L 716.78 390.07 C718.34,388.11 720.20,385.04 720.93,383.25 L 722.24 380.00 L 738.15 380.00 L 754.06 380.00 L 757.14 383.51 C759.32,385.99 761.37,387.20 764.19,387.65 C767.69,388.21 768.47,388.87 770.83,393.29 C772.30,396.04 774.17,399.05 775.00,399.98 C777.85,403.19 778.01,406.45 775.62,412.77 C774.41,415.95 774.22,418.03 774.88,420.98 L 775.77 424.92 L 767.64 432.95 C761.50,439.01 758.88,440.95 757.00,440.83 C755.62,440.75 748.97,440.38 742.22,440.01 ZM 643.37 413.89 C639.28,409.81 636.79,408.38 628.48,405.36 C606.70,397.45 602.60,395.93 602.35,395.68 C602.20,395.54 600.21,389.46 597.91,382.18 L 593.73 368.94 L 596.42 362.59 C598.92,356.72 599.40,356.20 602.81,355.63 C609.18,354.58 609.69,354.82 617.74,362.75 C625.30,370.20 625.59,370.66 625.23,374.50 C624.71,379.97 628.13,385.00 633.70,386.94 C637.46,388.25 638.20,388.21 642.02,386.49 C644.33,385.45 646.90,383.55 647.74,382.27 C649.24,379.99 649.52,379.95 664.31,380.22 L 679.35 380.50 L 681.32 385.30 L 683.29 390.09 L 680.39 393.93 C678.80,396.05 674.02,402.22 669.77,407.67 L 662.04 417.56 L 658.04 417.17 C655.83,416.96 652.74,417.24 651.15,417.80 C648.49,418.72 647.90,418.43 643.37,413.89 ZM 785.26 400.75 C784.11,399.51 781.39,395.09 779.21,390.93 C775.60,384.05 775.36,383.14 776.58,380.93 C779.88,374.97 776.54,366.74 769.78,364.17 C765.04,362.36 761.89,363.20 757.10,367.53 L 753.26 371.00 L 737.78 371.00 L 722.30 371.00 L 720.68 366.86 L 719.05 362.71 L 734.02 347.54 L 749.00 332.37 L 749.00 323.79 C749.00,315.05 749.48,314.00 753.43,314.00 C754.51,314.00 775.58,329.49 781.58,334.69 C782.72,335.69 785.62,340.89 788.01,346.25 C790.40,351.61 792.72,356.00 793.15,356.00 C793.58,356.00 793.68,356.67 793.36,357.50 C793.05,358.33 793.31,359.00 793.95,359.00 C794.59,359.00 794.84,359.45 794.50,360.00 C794.16,360.55 794.43,361.00 795.11,361.00 C795.78,361.00 796.06,361.27 795.73,361.61 C795.39,361.94 796.26,364.75 797.66,367.86 C802.61,378.86 802.69,377.52 796.32,390.87 C790.18,403.73 789.00,404.78 785.26,400.75 ZM 648.02 369.03 C646.26,365.75 639.27,362.70 635.04,363.38 C631.58,363.93 631.06,363.61 624.03,356.53 L 616.65 349.10 L 616.57 341.04 L 616.50 332.99 L 628.50 321.20 L 640.50 309.41 L 652.00 306.51 C658.33,304.92 667.55,302.40 672.50,300.91 C677.69,299.35 681.89,298.58 682.43,299.08 C682.98,299.60 680.59,305.36 676.43,313.51 C670.78,324.56 669.04,327.17 667.00,327.60 C661.25,328.81 657.88,331.05 656.36,334.67 C654.38,339.42 655.29,344.17 658.97,348.29 C661.54,351.17 662.43,351.51 667.56,351.58 C673.10,351.66 673.44,351.83 678.13,356.75 L 682.98 361.83 L 681.04 366.16 L 679.10 370.50 L 664.10 370.78 C649.92,371.04 649.04,370.94 648.02,369.03 ZM 709.00 355.42 C704.72,353.04 700.25,352.68 695.29,354.31 C689.84,356.11 688.79,355.73 683.66,350.05 C680.58,346.63 680.00,345.28 680.00,341.45 C680.00,338.95 679.35,335.64 678.55,334.09 C677.15,331.39 677.36,330.76 684.11,317.64 C689.56,307.04 691.57,304.00 693.11,304.00 C695.62,304.00 701.25,301.16 702.30,299.36 C703.36,297.56 704.47,297.62 718.18,300.16 L 729.85 302.32 L 731.53 306.72 C732.61,309.54 734.43,311.91 736.59,313.31 C739.90,315.45 739.98,315.65 739.99,322.51 L 740.00 329.53 L 726.24 343.26 C718.67,350.82 712.25,356.96 711.99,356.90 C711.72,356.85 710.38,356.18 709.00,355.42 Z" fill="rgb(254,254,254)"/>
</g>
</svg>